<svg width="514" height="515" viewBox="0 0 514 515" fill="none" xmlns="http://www.w3.org/2000/svg">
<mask id="mask0_2_9" style="mask-type:luminance" maskUnits="userSpaceOnUse" x="268" y="66" width="207" height="382">
<path d="M268.36 66.8365H474.687V447.63H268.36V66.8365Z" fill="white"/>
</mask>
<g mask="url(#mask0_2_9)">
<mask id="mask1_2_9" style="mask-type:luminance" maskUnits="userSpaceOnUse" x="268" y="67" width="207" height="381">
<path d="M465.602 180.697C457.544 142.944 446.601 105.581 443.793 67.0804C425.97 94.8074 401.425 117.481 376.613 139.18C351.8 160.879 326.257 182.121 305.694 207.882C285.131 233.645 269.629 264.731 268.46 297.671C267.586 322.267 274.755 346.65 285.801 368.639C295.023 386.999 306.887 403.862 319.469 420.134C319.79 388.543 328.441 356.717 341.797 327.862C361.608 285.068 391.131 247.634 420.379 210.644C373.184 280.065 346.813 363.452 345.508 447.386C373.101 428.354 399.862 407.706 422.209 382.72C444.557 357.737 462.433 328.106 470.052 295.462C478.824 257.871 473.659 218.45 465.602 180.697Z" fill="white"/>
</mask>
<g mask="url(#mask1_2_9)">
<mask id="mask2_2_9" style="mask-type:luminance" maskUnits="userSpaceOnUse" x="268" y="67" width="207" height="381">
<path d="M465.602 180.697C457.544 142.944 446.601 105.581 443.793 67.0804C425.97 94.8074 401.425 117.481 376.613 139.18C351.8 160.879 326.257 182.121 305.694 207.882C285.131 233.645 269.629 264.731 268.46 297.671C267.586 322.267 274.755 346.65 285.801 368.639C295.023 386.999 306.887 403.862 319.469 420.134C319.79 388.543 328.441 356.717 341.797 327.862C361.608 285.068 391.131 247.634 420.379 210.644C373.184 280.065 346.813 363.452 345.508 447.386C373.101 428.354 399.862 407.706 422.209 382.72C444.557 357.737 462.433 328.106 470.052 295.462C478.824 257.871 473.659 218.45 465.602 180.697Z" fill="white"/>
</mask>
<g mask="url(#mask2_2_9)">
<path d="M274.599 485.229L546.954 434.762L471.812 29.2381L199.456 79.7049L274.599 485.229Z" fill="#3F4F44"/>
</g>
</g>
</g>
<mask id="mask3_2_9" style="mask-type:luminance" maskUnits="userSpaceOnUse" x="39" y="186" width="208" height="262">
<path d="M39.4211 186.316H246.006V447.63H39.4211V186.316Z" fill="white"/>
</mask>
<g mask="url(#mask3_2_9)">
<mask id="mask4_2_9" style="mask-type:luminance" maskUnits="userSpaceOnUse" x="39" y="186" width="208" height="262">
<path d="M55.176 278.914C50.5781 247.952 48.2816 216.466 39.4842 186.424C60.894 202.426 85.9743 212.679 110.981 222.114C135.988 231.552 161.421 240.436 184.353 254.165C207.287 267.896 227.888 287.106 238.127 311.793C245.773 330.229 247.252 350.781 245.104 370.624C243.312 387.186 239.089 403.363 234.152 419.294C224.939 395.391 209.331 373.674 190.993 355.548C163.798 328.667 130.745 308.614 98.0277 288.822C153.584 328.153 197.29 384.005 222.111 447.386C195.748 440.765 169.56 432.678 145.491 420.046C121.423 407.413 99.4329 389.984 84.3795 367.349C67.0437 341.286 59.7739 309.879 55.176 278.914Z" fill="white"/>
</mask>
<g mask="url(#mask4_2_9)">
<mask id="mask5_2_9" style="mask-type:luminance" maskUnits="userSpaceOnUse" x="39" y="186" width="208" height="262">
<path d="M55.176 278.914C50.5781 247.952 48.2816 216.466 39.4842 186.424C60.894 202.426 85.9743 212.679 110.981 222.114C135.988 231.552 161.421 240.436 184.353 254.165C207.287 267.896 227.888 287.106 238.127 311.793C245.773 330.229 247.252 350.781 245.104 370.624C243.312 387.186 239.089 403.363 234.152 419.294C224.939 395.391 209.331 373.674 190.993 355.548C163.798 328.667 130.745 308.614 98.0277 288.822C153.584 328.153 197.29 384.005 222.111 447.386C195.748 440.765 169.56 432.678 145.491 420.046C121.423 407.413 99.4329 389.984 84.3795 367.349C67.0437 341.286 59.7739 309.879 55.176 278.914Z" fill="white"/>
</mask>
<g mask="url(#mask5_2_9)">
<path d="M46.3817 484.607L294.002 438.723L240.355 149.204L-7.26574 195.087L46.3817 484.607Z" fill="#3F4F44"/>
</g>
</g>
</g>
</svg>
